PathFileType	4	(x/y/z)	S08_PSF_T04
DataRate	CameraRate	NumFrames	NumMarkers	Units	OrigDataRate	OrigDataStartFrame	OrigNumFrames
240	240	6	51	mm	240	211	420
Frame#	Time	Sternum			R.Acromium			L.Acromium			Top.Head			R.ASIS			L.ASIS			R.PSIS			L.PSIS			R.Great.Tro			L.Great.Tro			R.Iliac.Crest			L.Iliac.Crest			V.Sacral			R.Thigh.Upper.Post			R.Thigh.Lower.Ant			R.Thigh.Lower.Post			R.Thigh.Upper.Ant			R.Knee.Lat			R.Knee.Med			R.Shank.Upper.Post			R.Shank.Lower.Ant			R.Shank.Lower.Post			R.Shank.Upper.Ant			R.Ankle.Lat			R.Ankle.Med			R.Heel.Upper			R.Heel.Med			R.Heel.Lat			R.Toe.Lat			R.Toe.Med			R.Toe.Tip			L.Thigh.Upper.Post			L.Thigh.Lower.Ant			L.Thigh.Lower.Post			L.Thigh.Upper.Ant			L.Knee.Lat			L.Knee.Med			L.Shank.Upper.Post			L.Shank.Lower.Ant			L.Shank.Lower.Post			L.Shank.Upper.Ant			L.Ankle.Lat			L.Ankle.Med			L.Heel.Upper			L.Heel.Med			L.Heel.Lat			L.Toe.Lat			L.Toe.Med			L.Toe.Tip			Cervical.Spine			Back			
		X1	Y1	Z1	X2	Y2	Z2	X3	Y3	Z3	X4	Y4	Z4	X5	Y5	Z5	X6	Y6	Z6	X7	Y7	Z7	X8	Y8	Z8	X9	Y9	Z9	X10	Y10	Z10	X11	Y11	Z11	X12	Y12	Z12	X13	Y13	Z13	X14	Y14	Z14	X15	Y15	Z15	X16	Y16	Z16	X17	Y17	Z17	X18	Y18	Z18	X19	Y19	Z19	X20	Y20	Z20	X21	Y21	Z21	X22	Y22	Z22	X23	Y23	Z23	X24	Y24	Z24	X25	Y25	Z25	X26	Y26	Z26	X27	Y27	Z27	X28	Y28	Z28	X29	Y29	Z29	X30	Y30	Z30	X31	Y31	Z31	X32	Y32	Z32	X33	Y33	Z33	X34	Y34	Z34	X35	Y35	Z35	X36	Y36	Z36	X37	Y37	Z37	X38	Y38	Z38	X39	Y39	Z39	X40	Y40	Z40	X41	Y41	Z41	X42	Y42	Z42	X43	Y43	Z43	X44	Y44	Z44	X45	Y45	Z45	X46	Y46	Z46	X47	Y47	Z47	X48	Y48	Z48	X49	Y49	Z49	X50	Y50	Z50	X51	Y51	Z51	

211	0.875	-350.48	1240.7	352.59	-456.79	1478.7	532.3	-480.36	1506.5	198.89	-456.14	1796.5	376.96	-374.32	1028.2	468.36	-371.43	1029.9	235.8	-574.43	1049.3	388.24	-570	1052.1	295.19	-445.52	917.95	535.3	-451.13	920.65	165.99	-471.01	1095.6	511.44	-467.02	1107.8	203.36	-588.69	1010	341.37	-476.84	720.34	515.59	-405.97	619.19	476.9	-475.31	631.53	494.47	-399.03	711.58	500.65	-448.21	522.25	464.1	-476.45	531.53	339.46	-527.79	340.65	462.4	-469.13	276.95	438.4	-532.4	264.69	450.05	-464.86	353.52	451.55	-537.33	95.9	402.63	-506.42	119.02	327.15	-584.35	66.217	351.85	-573.5	40.319	324.13	-579.61	42.075	386.1	NaN	NaN	NaN	-387.1	48.891	317.92	-323.71	66.601	365.69	-371.36	720.94	174.01	-256.35	671.96	194.18	-320.71	646.04	189	-303	746.4	174.09	-273.08	561.56	205.13	-267.12	553.51	331.01	-384.74	425.22	190.09	-359.15	317.18	202.14	-417.28	359.11	198.98	-331.11	388.02	193.75	-469.9	193.48	197.39	-447.48	183.79	280.85	-532.04	186.72	244.09	-534.17	148.77	271.78	-535.8	161.31	208.13	-379.72	79.943	174.33	-362.93	69.845	286.74	-296.59	64.356	240.09	-533.41	1535.9	363.46	-583.96	1253.9	372.27
212	0.87917	-345.45	1240.3	352.82	-451.53	1478.5	532.36	-474.84	1506.2	198.89	-450.72	1796.3	376.84	-369.75	1027.8	468.58	-366.4	1029.8	236.01	-569.68	1049	387.96	-565.08	1051.9	294.89	-441.41	917.69	535.26	-445.72	920.62	165.87	-466.52	1095.3	511.38	-461.83	1107.7	203.33	-583.78	1009.7	340.96	-474	720.42	515.51	-403.82	618.76	476.89	-473.01	631.59	494.38	-396.22	711.13	500.78	-446.56	522.06	464.14	-474.53	531.47	339.43	-526.91	340.79	462.38	-468.44	276.93	438.52	-531.78	264.84	450.03	-463.91	353.46	451.62	-537.19	96.028	402.52	-506.3	119.09	327.06	-584.34	66.28	351.81	-573.43	40.328	324.13	-579.58	42.138	386.07	NaN	NaN	NaN	-387.06	48.759	317.91	-323.62	66.351	365.69	-365.13	721.21	174.15	-249.95	672.75	194.64	-314.16	646.56	189.28	-296.88	746.98	174.4	-266.05	562.16	205.63	-260.54	554.28	331.39	-375.15	423.21	190.39	-347.24	315.76	202.73	-406.25	356.44	199.33	-320.74	387.18	194.26	-455.27	189.59	197.9	-432.63	180.49	281.44	-517.29	181.35	244.54	-518.55	143.4	272.3	-520.4	155.74	208.6	-362.26	78.201	175.14	-345.28	68.739	287.62	-278.82	64.784	241.03	-527.98	1535.7	363.46	-578.87	1253.8	372.2
213	0.88333	-340.41	1239.8	353.05	-446.28	1478.2	532.41	-469.31	1505.8	198.89	-445.3	1795.9	376.71	-365.16	1027.4	468.79	-361.38	1029.6	236.2	-564.91	1048.7	387.68	-560.15	1051.6	294.59	-437.28	917.41	535.22	-440.34	920.55	165.76	-462	1095	511.32	-456.63	1107.5	203.29	-578.86	1009.3	340.56	-471.15	720.48	515.42	-401.64	618.32	476.87	-470.7	631.63	494.28	-393.4	710.67	500.89	-444.89	521.86	464.17	-472.6	531.39	339.4	-526	340.93	462.36	-467.74	276.9	438.63	-531.13	264.99	450	-462.94	353.39	451.68	-537.05	96.159	402.41	-506.2	119.13	326.97	-584.35	66.351	351.76	-573.35	40.337	324.15	-579.55	42.203	386.04	NaN	NaN	NaN	-387.01	48.623	317.89	-323.52	66.096	365.69	-359	721.41	174.3	-243.66	673.43	195.08	-307.72	647	189.55	-290.86	747.47	174.7	-259.14	562.67	206.11	-254.06	554.94	331.76	-365.6	421.14	190.7	-335.36	314.32	203.32	-395.23	353.72	199.7	-310.43	386.29	194.76	-440.57	185.72	198.44	-417.7	177.21	282.06	-502.41	176.01	245.03	-502.78	138.09	272.89	-504.86	150.2	209.13	-344.78	76.541	176	-327.61	67.743	288.54	-261.08	65.318	242	-522.54	1535.5	363.45	-573.77	1253.6	372.12
214	0.8875	-335.36	1239.3	353.28	-441.04	1477.9	532.46	-463.76	1505.4	198.88	-439.87	1795.6	376.57	-360.56	1027	468.98	-356.35	1029.4	236.38	-560.13	1048.4	387.41	-555.22	1051.3	294.3	-433.13	917.11	535.19	-434.97	920.42	165.65	-457.45	1094.6	511.25	-451.42	1107.3	203.25	-573.93	1008.9	340.17	-468.28	720.53	515.33	-399.44	617.87	476.86	-468.37	631.66	494.18	-390.57	710.19	501	-443.19	521.65	464.2	-470.65	531.3	339.38	-525.08	341.07	462.34	-467.03	276.86	438.71	-530.46	265.13	449.97	-461.95	353.31	451.74	-536.91	96.295	402.3	-506.13	119.15	326.89	-584.37	66.429	351.72	-573.25	40.348	324.17	-579.51	42.271	386.01	NaN	NaN	NaN	-386.95	48.483	317.87	-323.43	65.837	365.7	-352.97	721.54	174.46	-237.48	674	195.49	-301.41	647.34	189.82	-284.92	747.86	174.99	-252.36	563.08	206.57	-247.69	555.48	332.11	-356.1	418.99	191.02	-323.51	312.88	203.92	-384.23	350.96	200.1	-300.17	385.37	195.27	-425.79	181.88	199.01	-402.7	173.98	282.72	-487.41	170.69	245.57	-486.87	132.83	273.54	-489.2	144.69	209.72	-327.29	74.978	176.9	-309.94	66.867	289.51	-243.39	65.971	243.01	-517.1	1535.2	363.42	-568.68	1253.4	372.03
215	0.89167	-330.3	1238.8	353.49	-435.8	1477.5	532.5	-458.21	1505	198.87	-434.44	1795.2	376.42	-355.94	1026.6	469.16	-351.32	1029.1	236.55	-555.34	1048	387.14	-550.28	1051	294.01	-428.96	916.79	535.15	-429.62	920.23	165.54	-452.88	1094.2	511.17	-446.21	1107	203.21	-568.99	1008.5	339.78	-465.39	720.56	515.24	-397.21	617.41	476.84	-466.01	631.67	494.08	-387.73	709.7	501.09	-441.46	521.43	464.24	-468.67	531.2	339.35	-524.13	341.19	462.31	-466.31	276.81	438.77	-529.77	265.27	449.94	-460.95	353.23	451.79	-536.76	96.435	402.18	-506.09	119.15	326.8	-584.41	66.514	351.67	-573.13	40.359	324.2	-579.48	42.342	385.97	NaN	NaN	NaN	-386.9	48.34	317.85	-323.32	65.574	365.7	-347.04	721.59	174.63	-231.42	674.45	195.89	-295.22	647.59	190.08	-279.09	748.14	175.28	-245.72	563.39	207	-241.43	555.92	332.44	-346.65	416.79	191.36	-311.69	311.44	204.52	-373.24	348.16	200.51	-289.98	384.42	195.78	-410.95	178.08	199.62	-387.64	170.81	283.41	-472.29	165.41	246.16	-470.82	127.64	274.25	-473.42	139.24	210.38	-309.8	73.525	177.84	-292.27	66.12	290.51	-225.74	66.751	244.03	-511.66	1534.9	363.39	-563.59	1253.2	371.94
216	0.89583	-325.24	1238.2	353.71	-430.56	1477.1	532.54	-452.64	1504.5	198.85	-429	1794.8	376.25	-351.3	1026.1	469.32	-346.29	1028.8	236.7	-550.53	1047.6	386.88	-545.34	1050.6	293.73	-424.78	916.44	535.11	-424.3	919.99	165.45	-448.29	1093.7	511.09	-440.99	1106.7	203.15	-564.05	1008.1	339.41	-462.47	720.57	515.14	-394.95	616.94	476.84	-463.62	631.67	493.97	-384.88	709.19	501.18	-439.7	521.2	464.27	-466.68	531.09	339.32	-523.16	341.32	462.29	-465.59	276.73	438.8	-529.07	265.41	449.91	-459.92	353.13	451.83	-536.61	96.58	402.06	-506.06	119.13	326.71	-584.45	66.603	351.62	-572.99	40.371	324.23	-579.45	42.417	385.94	NaN	NaN	NaN	-386.83	48.193	317.82	-323.22	65.306	365.7	-341.21	721.55	174.81	-225.48	674.79	196.26	-289.17	647.74	190.33	-273.34	748.33	175.57	-239.2	563.6	207.42	-235.28	556.24	332.76	-337.24	414.52	191.72	-299.9	310.01	205.13	-362.27	345.34	200.94	-279.86	383.45	196.29	-396.05	174.33	200.27	-372.53	167.69	284.15	-457.07	160.18	246.8	-454.66	122.53	275.01	-457.53	133.86	211.11	-292.32	72.195	178.8	-274.6	65.51	291.54	-208.14	67.671	245.06	-506.22	1534.6	363.35	-558.5	1252.9	371.84
